<?xml version="1.0" encoding="UTF-8" standalone="no"?>
<svg
   xmlns:dc="http://purl.org/dc/elements/1.1/"
   xmlns:cc="http://creativecommons.org/ns#"
   xmlns:rdf="http://www.w3.org/1999/02/22-rdf-syntax-ns#"
   xmlns:svg="http://www.w3.org/2000/svg"
   xmlns="http://www.w3.org/2000/svg"
   xmlns:sodipodi="http://sodipodi.sourceforge.net/DTD/sodipodi-0.dtd"
   xmlns:inkscape="http://www.inkscape.org/namespaces/inkscape"
   height="20px"
   version="1.1"
   viewBox="0 0 20 20"
   width="20px"
   id="svg12"
   sodipodi:docname="off.svg"
   inkscape:version="0.92.3 (2405546, 2018-03-11)">
  <metadata
     id="metadata16">
    <rdf:RDF>
      <cc:Work
         rdf:about="">
        <dc:format>image/svg+xml</dc:format>
        <dc:type
           rdf:resource="http://purl.org/dc/dcmitype/StillImage" />
        <dc:title />
      </cc:Work>
    </rdf:RDF>
  </metadata>
  <sodipodi:namedview
     pagecolor="#ffffff"
     bordercolor="#666666"
     borderopacity="1"
     objecttolerance="10"
     gridtolerance="10"
     guidetolerance="10"
     inkscape:pageopacity="0"
     inkscape:pageshadow="2"
     inkscape:window-width="1920"
     inkscape:window-height="1008"
     id="namedview14"
     showgrid="false"
     inkscape:zoom="16"
     inkscape:cx="16.458466"
     inkscape:cy="9.7844187"
     inkscape:window-x="0"
     inkscape:window-y="0"
     inkscape:window-maximized="1"
     inkscape:current-layer="svg12"
     inkscape:measure-start="0,0"
     inkscape:measure-end="0,0" />
  <desc
     id="desc4" />
  <defs
     id="defs6" />
  <g
     id="Page-1"
     transform="matrix(0.5,0,0,0.5,0,5)"
     style="fill:#333333;fill-rule:evenodd;stroke:none;stroke-width:1">
    <g
       id="Core"
       transform="translate(-170,-86)"
       style="fill:#333333">
      <g
         id="check-circle-outline-blank"
         transform="translate(170,86)"
         style="fill:#333333">
        <path
           d="M 10,0 C 4.5,0 0,4.5 0,10 0,15.5 4.5,20 10,20 15.5,20 20,15.5 20,10 20,4.5 15.5,0 10,0 Z m 0.0078,17 C 5.6078125,17 3.0054175,14.4 3.0054175,10 3.0054175,5.6 5.6,3 10,3 c 4.4,0 8,2.6 8,7 0,4.4 -3.592187,7 -7.992187,7 z"
           id="Shape"
           inkscape:connector-curvature="0"
           style="fill:#333333"
           sodipodi:nodetypes="ssssssssss" />
      </g>
    </g>
  </g>
  <rect
     style="fill:#333333;stroke-width:1.14508271"
     id="rect3724"
     width="10"
     height="1.4978296"
     x="5"
     y="5" />
  <path
     id="Shape-3"
     style="fill:#333333;fill-rule:evenodd;stroke:none;stroke-width:0.5"
     d="m 15,5 c -1.017755,0 -1.962173,0.3127537 -2.75,0.84375 0.06776,-0.00146 0.135653,-0.00264 0.203125,-0.00391 0.07613,-0.00143 0.150419,-0.00252 0.226563,-0.00195 0.107746,0.00134 0.215832,0.013662 0.322265,0.029297 0.05838,0.00958 0.116918,0.017699 0.175781,0.023437 0.03789,0.00358 0.07532,0.00511 0.113282,0.00781 0.580099,0.04116 0.886095,0.3036967 0.978515,0.59375 0.0069,-0.00202 0.0044,-0.00987 0.01367,-0.00977 0.0087,9.5e-5 0.01863,4.569e-4 0.02734,0 0.01238,-7.539e-4 0.02471,-0.00151 0.03711,-0.00195 0.01247,-7.873e-4 0.02467,-7.906e-4 0.03711,-0.00195 0.01191,-0.00129 0.02325,-0.00269 0.03516,-0.00391 0.01032,-0.00105 0.0209,-0.00131 0.03125,-0.00195 0.0094,-5.48e-4 0.01993,-0.00162 0.0293,-0.00195 0.0077,-2.774e-4 0.01376,1.611e-4 0.02148,0 0.0069,-1.759e-4 0.01459,-0.0014 0.02149,-0.00195 0.0088,-6.666e-4 0.01848,4.1e-4 0.02734,0 0.0089,-1.831e-4 0.01652,-0.00124 0.02539,-0.00195 0.0096,-7.737e-4 0.01964,-0.00142 0.0293,-0.00195 0.0087,-4.687e-4 0.01669,-0.00172 0.02539,-0.00195 0.01071,-2.653e-4 0.02248,1.18e-4 0.0332,0 0.01016,-1.074e-4 0.02109,6.47e-5 0.03125,0 0.0083,-4.83e-5 0.01518,3.37e-5 0.02344,0 h 0.0078 c 0.03112,-1.145e-4 0.04211,0.011967 0.04297,0.025391 0.0032,4.11e-5 0.0063,8.44e-5 0.0098,0 0.0067,-2.785e-4 0.01282,-6.63e-4 0.01953,0 0.0073,1.893e-4 0.01461,0.00413 0.02148,0.00586 0.002,6.216e-4 0.0039,0.00162 0.0059,0.00195 0.0091,-0.00812 0.0092,-0.021484 0.0293,-0.021484 h 0.02344 0.0039 c 0.01171,0 0.01082,0.00813 0.01758,0.011719 0.0082,-0.00404 0.0064,-0.013672 0.01953,-0.013672 h 0.01758 0.01563 c 0.02707,0 0.035,0.014347 0.04102,0.027344 0.002,-4.51e-5 0.0039,0 0.0059,0 2.2,0 3.498047,1.3 3.498047,3.5 0,2.2 -1.301953,3.5 -3.501953,3.5 -0.0027,0 -0.0052,7.3e-5 -0.0078,0 -0.0081,0.0091 -0.01029,0.02096 -0.03125,0.02148 -0.0095,2.39e-4 -0.01786,-4.07e-4 -0.02734,0 -0.0083,3.76e-4 -0.01709,0.0012 -0.02539,0.002 -0.0084,7.66e-4 -0.0071,-0.0066 -0.01367,-0.0078 -0.0059,6.91e-4 -0.01163,0.0016 -0.01758,0.002 -0.0086,6.27e-4 -0.01673,0.0021 -0.02539,0.002 h -0.02344 -0.02539 -0.02734 -0.02734 -0.02344 c -0.0024,0 -0.0017,-0.0018 -0.0039,-0.002 -0.132239,0.349342 -1.840827,0.622525 -0.816406,0.992188 -0.01305,-0.0033 -0.03016,-0.0066 -0.04492,-0.0098 -0.0065,-0.0014 -0.0069,7.6e-5 -0.01172,-0.002 0.0093,-0.0011 0.007,-5.28e-4 -0.01367,-0.002 -0.03387,-0.0018 -0.0677,-0.0039 -0.101562,-0.0059 -0.01115,-6.69e-4 -0.02205,-0.0013 -0.0332,-0.002 -0.07846,-0.0052 -0.156196,-0.01103 -0.234374,-0.01953 -0.09564,-0.01086 -0.190534,-0.02318 -0.285157,-0.04102 -0.118534,-0.02245 -0.236979,-0.04664 -0.353515,-0.07813 -0.101479,-0.02835 -0.20318,-0.05719 -0.302735,-0.0918 -0.07283,-0.0246 -0.147154,-0.04915 -0.216797,-0.08203 -0.03706,-0.01699 -0.07384,-0.03472 -0.111328,-0.05078 C 12.993489,14.675558 13.959976,15 15,15 c 2.75,0 5,-2.25 5,-5 0,-2.75 -2.25,-5 -5,-5 z m -2.625,7.710938 c 0.0015,0.0029 0.0044,0.0049 0.0059,0.0078 0.0072,0.0031 0.01426,0.0066 0.02149,0.0098 -0.0088,-0.0062 -0.01858,-0.01128 -0.02734,-0.01758 z" />
  <rect
     style="fill:#333333;stroke-width:1.14615846"
     id="rect3724-6"
     width="10"
     height="1.5006453"
     x="5"
     y="13.5" />
  <circle
     style="fill:#333333;stroke-width:1.42857134"
     id="path3807"
     cx="5"
     cy="10"
     r="5" />
</svg>
